<?xml version="1.0" encoding="utf-8" standalone="no"?>
<!DOCTYPE svg PUBLIC "-//W3C//DTD SVG 1.1//EN"
  "http://www.w3.org/Graphics/SVG/1.1/DTD/svg11.dtd">
<svg xmlns:xlink="http://www.w3.org/1999/xlink" width="686.841605pt" height="420.044234pt" viewBox="0 0 686.841605 420.044234" xmlns="http://www.w3.org/2000/svg" version="1.1">
 <metadata>
  <rdf:RDF xmlns:dc="http://purl.org/dc/elements/1.1/" xmlns:cc="http://creativecommons.org/ns#" xmlns:rdf="http://www.w3.org/1999/02/22-rdf-syntax-ns#">
   <cc:Work>
    <dc:type rdf:resource="http://purl.org/dc/dcmitype/StillImage"/>
    <dc:date>2026-09-19T02:43:53.819640</dc:date>
    <dc:format>image/svg+xml</dc:format>
    <dc:creator>
     <cc:Agent>
      <dc:title>Matplotlib v3.11.2, https://matplotlib.org/</dc:title>
     </cc:Agent>
    </dc:creator>
   </cc:Work>
  </rdf:RDF>
 </metadata>
 <defs>
  <style type="text/css">*{stroke-linejoin: round; stroke-linecap: butt}</style>
 </defs>
 <g id="figure_1">
  <g id="patch_1">
   <path d="M 0 420.044234 
L 686.841605 420.044234 
L 686.841605 0 
L 0 0 
z
" style="fill: #0a0e17"/>
  </g>
  <g id="axes_1">
   <g id="patch_2">
    <path d="M 57.598359 363.461656 
L 604.438359 363.461656 
L 604.438359 52.997656 
L 57.598359 52.997656 
z
" style="fill: #0a0e17"/>
   </g>
   <g id="matplotlib.axis_1">
    <g id="xtick_1">
     <g id="line2d_1">
      <defs>
       <path id="m3cd2ec458e" d="M 0 0 
L 0 3.5 
" style="stroke: #8fa3bf; stroke-width: 0.8"/>
      </defs>
      <g>
       <use xlink:href="#m3cd2ec458e" x="139.784415" y="363.461656" style="fill: #8fa3bf; stroke: #8fa3bf; stroke-width: 0.8"/>
      </g>
     </g>
     <g id="text_1">
      <!-- 25 -->
      <g style="fill: #8fa3bf" transform="translate(132.785665 378.819078) scale(0.11 -0.11)">
       <defs>
        <path id="DejaVuSans-15" d="M 1228 531 
L 3431 531 
L 3431 0 
L 469 0 
L 469 531 
Q 828 903 1448 1529 
Q 2069 2156 2228 2338 
Q 2531 2678 2651 2914 
Q 2772 3150 2772 3378 
Q 2772 3750 2511 3984 
Q 2250 4219 1831 4219 
Q 1534 4219 1204 4116 
Q 875 4013 500 3803 
L 500 4441 
Q 881 4594 1212 4672 
Q 1544 4750 1819 4750 
Q 2544 4750 2975 4387 
Q 3406 4025 3406 3419 
Q 3406 3131 3298 2873 
Q 3191 2616 2906 2266 
Q 2828 2175 2409 1742 
Q 1991 1309 1228 531 
z
" transform="scale(0.015625)"/>
        <path id="DejaVuSans-18" d="M 691 4666 
L 3169 4666 
L 3169 4134 
L 1269 4134 
L 1269 2991 
Q 1406 3038 1543 3061 
Q 1681 3084 1819 3084 
Q 2600 3084 3056 2656 
Q 3513 2228 3513 1497 
Q 3513 744 3044 326 
Q 2575 -91 1722 -91 
Q 1428 -91 1123 -41 
Q 819 9 494 109 
L 494 744 
Q 775 591 1075 516 
Q 1375 441 1709 441 
Q 2250 441 2565 725 
Q 2881 1009 2881 1497 
Q 2881 1984 2565 2268 
Q 2250 2553 1709 2553 
Q 1456 2553 1204 2497 
Q 953 2441 691 2322 
L 691 4666 
z
" transform="scale(0.015625)"/>
       </defs>
       <use xlink:href="#DejaVuSans-15"/>
       <use xlink:href="#DejaVuSans-18" transform="translate(63.625 0)"/>
      </g>
     </g>
    </g>
    <g id="xtick_2">
     <g id="line2d_2">
      <g>
       <use xlink:href="#m3cd2ec458e" x="225.773561" y="363.461656" style="fill: #8fa3bf; stroke: #8fa3bf; stroke-width: 0.8"/>
      </g>
     </g>
     <g id="text_2">
      <!-- 30 -->
      <g style="fill: #8fa3bf" transform="translate(218.774811 378.819078) scale(0.11 -0.11)">
       <defs>
        <path id="DejaVuSans-16" d="M 2597 2516 
Q 3050 2419 3304 2112 
Q 3559 1806 3559 1356 
Q 3559 666 3084 287 
Q 2609 -91 1734 -91 
Q 1441 -91 1130 -33 
Q 819 25 488 141 
L 488 750 
Q 750 597 1062 519 
Q 1375 441 1716 441 
Q 2309 441 2620 675 
Q 2931 909 2931 1356 
Q 2931 1769 2642 2001 
Q 2353 2234 1838 2234 
L 1294 2234 
L 1294 2753 
L 1863 2753 
Q 2328 2753 2575 2939 
Q 2822 3125 2822 3475 
Q 2822 3834 2567 4026 
Q 2313 4219 1838 4219 
Q 1578 4219 1281 4162 
Q 984 4106 628 3988 
L 628 4550 
Q 988 4650 1302 4700 
Q 1616 4750 1894 4750 
Q 2613 4750 3031 4423 
Q 3450 4097 3450 3541 
Q 3450 3153 3228 2886 
Q 3006 2619 2597 2516 
z
" transform="scale(0.015625)"/>
        <path id="DejaVuSans-13" d="M 2034 4250 
Q 1547 4250 1301 3770 
Q 1056 3291 1056 2328 
Q 1056 1369 1301 889 
Q 1547 409 2034 409 
Q 2525 409 2770 889 
Q 3016 1369 3016 2328 
Q 3016 3291 2770 3770 
Q 2525 4250 2034 4250 
z
M 2034 4750 
Q 2819 4750 3233 4129 
Q 3647 3509 3647 2328 
Q 3647 1150 3233 529 
Q 2819 -91 2034 -91 
Q 1250 -91 836 529 
Q 422 1150 422 2328 
Q 422 3509 836 4129 
Q 1250 4750 2034 4750 
z
" transform="scale(0.015625)"/>
       </defs>
       <use xlink:href="#DejaVuSans-16"/>
       <use xlink:href="#DejaVuSans-13" transform="translate(63.625 0)"/>
      </g>
     </g>
    </g>
    <g id="xtick_3">
     <g id="line2d_3">
      <g>
       <use xlink:href="#m3cd2ec458e" x="311.762706" y="363.461656" style="fill: #8fa3bf; stroke: #8fa3bf; stroke-width: 0.8"/>
      </g>
     </g>
     <g id="text_3">
      <!-- 35 -->
      <g style="fill: #8fa3bf" transform="translate(304.763956 378.819078) scale(0.11 -0.11)">
       <use xlink:href="#DejaVuSans-16"/>
       <use xlink:href="#DejaVuSans-18" transform="translate(63.625 0)"/>
      </g>
     </g>
    </g>
    <g id="xtick_4">
     <g id="line2d_4">
      <g>
       <use xlink:href="#m3cd2ec458e" x="397.751851" y="363.461656" style="fill: #8fa3bf; stroke: #8fa3bf; stroke-width: 0.8"/>
      </g>
     </g>
     <g id="text_4">
      <!-- 40 -->
      <g style="fill: #8fa3bf" transform="translate(390.753101 378.819078) scale(0.11 -0.11)">
       <defs>
        <path id="DejaVuSans-17" d="M 2419 4116 
L 825 1625 
L 2419 1625 
L 2419 4116 
z
M 2253 4666 
L 3047 4666 
L 3047 1625 
L 3713 1625 
L 3713 1100 
L 3047 1100 
L 3047 0 
L 2419 0 
L 2419 1100 
L 313 1100 
L 313 1709 
L 2253 4666 
z
" transform="scale(0.015625)"/>
       </defs>
       <use xlink:href="#DejaVuSans-17"/>
       <use xlink:href="#DejaVuSans-13" transform="translate(63.625 0)"/>
      </g>
     </g>
    </g>
    <g id="xtick_5">
     <g id="line2d_5">
      <g>
       <use xlink:href="#m3cd2ec458e" x="483.740996" y="363.461656" style="fill: #8fa3bf; stroke: #8fa3bf; stroke-width: 0.8"/>
      </g>
     </g>
     <g id="text_5">
      <!-- 45 -->
      <g style="fill: #8fa3bf" transform="translate(476.742246 378.819078) scale(0.11 -0.11)">
       <use xlink:href="#DejaVuSans-17"/>
       <use xlink:href="#DejaVuSans-18" transform="translate(63.625 0)"/>
      </g>
     </g>
    </g>
    <g id="xtick_6">
     <g id="line2d_6">
      <g>
       <use xlink:href="#m3cd2ec458e" x="569.730141" y="363.461656" style="fill: #8fa3bf; stroke: #8fa3bf; stroke-width: 0.8"/>
      </g>
     </g>
     <g id="text_6">
      <!-- 50 -->
      <g style="fill: #8fa3bf" transform="translate(562.731391 378.819078) scale(0.11 -0.11)">
       <use xlink:href="#DejaVuSans-18"/>
       <use xlink:href="#DejaVuSans-13" transform="translate(63.625 0)"/>
      </g>
     </g>
    </g>
    <g id="text_7">
     <!-- GFLOPs @ 640$^2$  (compute per image) -->
     <g style="fill: #e6edf7" transform="translate(226.353359 395.801656) scale(0.11 -0.11)">
      <defs>
       <path id="DejaVuSans-2a" d="M 3809 666 
L 3809 1919 
L 2778 1919 
L 2778 2438 
L 4434 2438 
L 4434 434 
Q 4069 175 3628 42 
Q 3188 -91 2688 -91 
Q 1594 -91 976 548 
Q 359 1188 359 2328 
Q 359 3472 976 4111 
Q 1594 4750 2688 4750 
Q 3144 4750 3555 4637 
Q 3966 4525 4313 4306 
L 4313 3634 
Q 3963 3931 3569 4081 
Q 3175 4231 2741 4231 
Q 1884 4231 1454 3753 
Q 1025 3275 1025 2328 
Q 1025 1384 1454 906 
Q 1884 428 2741 428 
Q 3075 428 3337 486 
Q 3600 544 3809 666 
z
" transform="scale(0.015625)"/>
       <path id="DejaVuSans-29" d="M 628 4666 
L 3309 4666 
L 3309 4134 
L 1259 4134 
L 1259 2759 
L 3109 2759 
L 3109 2228 
L 1259 2228 
L 1259 0 
L 628 0 
L 628 4666 
z
" transform="scale(0.015625)"/>
       <path id="DejaVuSans-2f" d="M 628 4666 
L 1259 4666 
L 1259 531 
L 3531 531 
L 3531 0 
L 628 0 
L 628 4666 
z
" transform="scale(0.015625)"/>
       <path id="DejaVuSans-32" d="M 2522 4238 
Q 1834 4238 1429 3725 
Q 1025 3213 1025 2328 
Q 1025 1447 1429 934 
Q 1834 422 2522 422 
Q 3209 422 3611 934 
Q 4013 1447 4013 2328 
Q 4013 3213 3611 3725 
Q 3209 4238 2522 4238 
z
M 2522 4750 
Q 3503 4750 4090 4092 
Q 4678 3434 4678 2328 
Q 4678 1225 4090 567 
Q 3503 -91 2522 -91 
Q 1538 -91 948 565 
Q 359 1222 359 2328 
Q 359 3434 948 4092 
Q 1538 4750 2522 4750 
z
" transform="scale(0.015625)"/>
       <path id="DejaVuSans-33" d="M 1259 4147 
L 1259 2394 
L 2053 2394 
Q 2494 2394 2734 2622 
Q 2975 2850 2975 3272 
Q 2975 3691 2734 3919 
Q 2494 4147 2053 4147 
L 1259 4147 
z
M 628 4666 
L 2053 4666 
Q 2838 4666 3239 4311 
Q 3641 3956 3641 3272 
Q 3641 2581 3239 2228 
Q 2838 1875 2053 1875 
L 1259 1875 
L 1259 0 
L 628 0 
L 628 4666 
z
" transform="scale(0.015625)"/>
       <path id="DejaVuSans-56" d="M 2834 3397 
L 2834 2853 
Q 2591 2978 2328 3040 
Q 2066 3103 1784 3103 
Q 1356 3103 1142 2972 
Q 928 2841 928 2578 
Q 928 2378 1081 2264 
Q 1234 2150 1697 2047 
L 1894 2003 
Q 2506 1872 2764 1633 
Q 3022 1394 3022 966 
Q 3022 478 2636 193 
Q 2250 -91 1575 -91 
Q 1294 -91 989 -36 
Q 684 19 347 128 
L 347 722 
Q 666 556 975 473 
Q 1284 391 1588 391 
Q 1994 391 2212 530 
Q 2431 669 2431 922 
Q 2431 1156 2273 1281 
Q 2116 1406 1581 1522 
L 1381 1569 
Q 847 1681 609 1914 
Q 372 2147 372 2553 
Q 372 3047 722 3315 
Q 1072 3584 1716 3584 
Q 2034 3584 2315 3537 
Q 2597 3491 2834 3397 
z
" transform="scale(0.015625)"/>
       <path id="DejaVuSans-3" transform="scale(0.015625)"/>
       <path id="DejaVuSans-23" d="M 2381 1678 
Q 2381 1231 2603 976 
Q 2825 722 3213 722 
Q 3597 722 3817 978 
Q 4038 1234 4038 1678 
Q 4038 2116 3813 2373 
Q 3588 2631 3206 2631 
Q 2828 2631 2604 2375 
Q 2381 2119 2381 1678 
z
M 4084 744 
Q 3897 503 3655 389 
Q 3413 275 3091 275 
Q 2553 275 2217 664 
Q 1881 1053 1881 1678 
Q 1881 2303 2218 2693 
Q 2556 3084 3091 3084 
Q 3413 3084 3656 2967 
Q 3900 2850 4084 2613 
L 4084 3022 
L 4531 3022 
L 4531 722 
Q 4988 791 5245 1139 
Q 5503 1488 5503 2041 
Q 5503 2375 5404 2669 
Q 5306 2963 5106 3213 
Q 4781 3622 4314 3839 
Q 3847 4056 3297 4056 
Q 2913 4056 2559 3954 
Q 2206 3853 1906 3653 
Q 1416 3334 1139 2817 
Q 863 2300 863 1697 
Q 863 1200 1042 765 
Q 1222 331 1563 0 
Q 1891 -325 2322 -495 
Q 2753 -666 3244 -666 
Q 3647 -666 4036 -530 
Q 4425 -394 4750 -141 
L 5031 -488 
Q 4641 -791 4180 -952 
Q 3719 -1113 3244 -1113 
Q 2666 -1113 2153 -908 
Q 1641 -703 1241 -313 
Q 841 78 631 592 
Q 422 1106 422 1697 
Q 422 2266 634 2781 
Q 847 3297 1241 3688 
Q 1644 4084 2172 4295 
Q 2700 4506 3291 4506 
Q 3953 4506 4520 4234 
Q 5088 3963 5472 3463 
Q 5706 3156 5829 2797 
Q 5953 2438 5953 2053 
Q 5953 1231 5456 756 
Q 4959 281 4084 263 
L 4084 744 
z
" transform="scale(0.015625)"/>
       <path id="DejaVuSans-19" d="M 2113 2584 
Q 1688 2584 1439 2293 
Q 1191 2003 1191 1497 
Q 1191 994 1439 701 
Q 1688 409 2113 409 
Q 2538 409 2786 701 
Q 3034 994 3034 1497 
Q 3034 2003 2786 2293 
Q 2538 2584 2113 2584 
z
M 3366 4563 
L 3366 3988 
Q 3128 4100 2886 4159 
Q 2644 4219 2406 4219 
Q 1781 4219 1451 3797 
Q 1122 3375 1075 2522 
Q 1259 2794 1537 2939 
Q 1816 3084 2150 3084 
Q 2853 3084 3261 2657 
Q 3669 2231 3669 1497 
Q 3669 778 3244 343 
Q 2819 -91 2113 -91 
Q 1303 -91 875 529 
Q 447 1150 447 2328 
Q 447 3434 972 4092 
Q 1497 4750 2381 4750 
Q 2619 4750 2861 4703 
Q 3103 4656 3366 4563 
z
" transform="scale(0.015625)"/>
       <path id="DejaVuSans-b" d="M 1984 4856 
Q 1566 4138 1362 3434 
Q 1159 2731 1159 2009 
Q 1159 1288 1364 580 
Q 1569 -128 1984 -844 
L 1484 -844 
Q 1016 -109 783 600 
Q 550 1309 550 2009 
Q 550 2706 781 3412 
Q 1013 4119 1484 4856 
L 1984 4856 
z
" transform="scale(0.015625)"/>
       <path id="DejaVuSans-46" d="M 3122 3366 
L 3122 2828 
Q 2878 2963 2633 3030 
Q 2388 3097 2138 3097 
Q 1578 3097 1268 2742 
Q 959 2388 959 1747 
Q 959 1106 1268 751 
Q 1578 397 2138 397 
Q 2388 397 2633 464 
Q 2878 531 3122 666 
L 3122 134 
Q 2881 22 2623 -34 
Q 2366 -91 2075 -91 
Q 1284 -91 818 406 
Q 353 903 353 1747 
Q 353 2603 823 3093 
Q 1294 3584 2113 3584 
Q 2378 3584 2631 3529 
Q 2884 3475 3122 3366 
z
" transform="scale(0.015625)"/>
       <path id="DejaVuSans-52" d="M 1959 3097 
Q 1497 3097 1228 2736 
Q 959 2375 959 1747 
Q 959 1119 1226 758 
Q 1494 397 1959 397 
Q 2419 397 2687 759 
Q 2956 1122 2956 1747 
Q 2956 2369 2687 2733 
Q 2419 3097 1959 3097 
z
M 1959 3584 
Q 2709 3584 3137 3096 
Q 3566 2609 3566 1747 
Q 3566 888 3137 398 
Q 2709 -91 1959 -91 
Q 1206 -91 779 398 
Q 353 888 353 1747 
Q 353 2609 779 3096 
Q 1206 3584 1959 3584 
z
" transform="scale(0.015625)"/>
       <path id="DejaVuSans-50" d="M 3328 2828 
Q 3544 3216 3844 3400 
Q 4144 3584 4550 3584 
Q 5097 3584 5394 3201 
Q 5691 2819 5691 2113 
L 5691 0 
L 5113 0 
L 5113 2094 
Q 5113 2597 4934 2840 
Q 4756 3084 4391 3084 
Q 3944 3084 3684 2787 
Q 3425 2491 3425 1978 
L 3425 0 
L 2847 0 
L 2847 2094 
Q 2847 2600 2669 2842 
Q 2491 3084 2119 3084 
Q 1678 3084 1418 2786 
Q 1159 2488 1159 1978 
L 1159 0 
L 581 0 
L 581 3500 
L 1159 3500 
L 1159 2956 
Q 1356 3278 1631 3431 
Q 1906 3584 2284 3584 
Q 2666 3584 2933 3390 
Q 3200 3197 3328 2828 
z
" transform="scale(0.015625)"/>
       <path id="DejaVuSans-53" d="M 1159 525 
L 1159 -1331 
L 581 -1331 
L 581 3500 
L 1159 3500 
L 1159 2969 
Q 1341 3281 1617 3432 
Q 1894 3584 2278 3584 
Q 2916 3584 3314 3078 
Q 3713 2572 3713 1747 
Q 3713 922 3314 415 
Q 2916 -91 2278 -91 
Q 1894 -91 1617 61 
Q 1341 213 1159 525 
z
M 3116 1747 
Q 3116 2381 2855 2742 
Q 2594 3103 2138 3103 
Q 1681 3103 1420 2742 
Q 1159 2381 1159 1747 
Q 1159 1113 1420 752 
Q 1681 391 2138 391 
Q 2594 391 2855 752 
Q 3116 1113 3116 1747 
z
" transform="scale(0.015625)"/>
       <path id="DejaVuSans-58" d="M 544 1381 
L 544 3500 
L 1119 3500 
L 1119 1403 
Q 1119 906 1312 657 
Q 1506 409 1894 409 
Q 2359 409 2629 706 
Q 2900 1003 2900 1516 
L 2900 3500 
L 3475 3500 
L 3475 0 
L 2900 0 
L 2900 538 
Q 2691 219 2414 64 
Q 2138 -91 1772 -91 
Q 1169 -91 856 284 
Q 544 659 544 1381 
z
M 1991 3584 
L 1991 3584 
z
" transform="scale(0.015625)"/>
       <path id="DejaVuSans-57" d="M 1172 4494 
L 1172 3500 
L 2356 3500 
L 2356 3053 
L 1172 3053 
L 1172 1153 
Q 1172 725 1289 603 
Q 1406 481 1766 481 
L 2356 481 
L 2356 0 
L 1766 0 
Q 1100 0 847 248 
Q 594 497 594 1153 
L 594 3053 
L 172 3053 
L 172 3500 
L 594 3500 
L 594 4494 
L 1172 4494 
z
" transform="scale(0.015625)"/>
       <path id="DejaVuSans-48" d="M 3597 1894 
L 3597 1613 
L 953 1613 
Q 991 1019 1311 708 
Q 1631 397 2203 397 
Q 2534 397 2845 478 
Q 3156 559 3463 722 
L 3463 178 
Q 3153 47 2828 -22 
Q 2503 -91 2169 -91 
Q 1331 -91 842 396 
Q 353 884 353 1716 
Q 353 2575 817 3079 
Q 1281 3584 2069 3584 
Q 2775 3584 3186 3129 
Q 3597 2675 3597 1894 
z
M 3022 2063 
Q 3016 2534 2758 2815 
Q 2500 3097 2075 3097 
Q 1594 3097 1305 2825 
Q 1016 2553 972 2059 
L 3022 2063 
z
" transform="scale(0.015625)"/>
       <path id="DejaVuSans-55" d="M 2631 2963 
Q 2534 3019 2420 3045 
Q 2306 3072 2169 3072 
Q 1681 3072 1420 2755 
Q 1159 2438 1159 1844 
L 1159 0 
L 581 0 
L 581 3500 
L 1159 3500 
L 1159 2956 
Q 1341 3275 1631 3429 
Q 1922 3584 2338 3584 
Q 2397 3584 2469 3576 
Q 2541 3569 2628 3553 
L 2631 2963 
z
" transform="scale(0.015625)"/>
       <path id="DejaVuSans-4c" d="M 603 3500 
L 1178 3500 
L 1178 0 
L 603 0 
L 603 3500 
z
M 603 4863 
L 1178 4863 
L 1178 4134 
L 603 4134 
L 603 4863 
z
" transform="scale(0.015625)"/>
       <path id="DejaVuSans-44" d="M 2194 1759 
Q 1497 1759 1228 1600 
Q 959 1441 959 1056 
Q 959 750 1161 570 
Q 1363 391 1709 391 
Q 2188 391 2477 730 
Q 2766 1069 2766 1631 
L 2766 1759 
L 2194 1759 
z
M 3341 1997 
L 3341 0 
L 2766 0 
L 2766 531 
Q 2569 213 2275 61 
Q 1981 -91 1556 -91 
Q 1019 -91 701 211 
Q 384 513 384 1019 
Q 384 1609 779 1909 
Q 1175 2209 1959 2209 
L 2766 2209 
L 2766 2266 
Q 2766 2663 2505 2880 
Q 2244 3097 1772 3097 
Q 1472 3097 1187 3025 
Q 903 2953 641 2809 
L 641 3341 
Q 956 3463 1253 3523 
Q 1550 3584 1831 3584 
Q 2591 3584 2966 3190 
Q 3341 2797 3341 1997 
z
" transform="scale(0.015625)"/>
       <path id="DejaVuSans-4a" d="M 2906 1791 
Q 2906 2416 2648 2759 
Q 2391 3103 1925 3103 
Q 1463 3103 1205 2759 
Q 947 2416 947 1791 
Q 947 1169 1205 825 
Q 1463 481 1925 481 
Q 2391 481 2648 825 
Q 2906 1169 2906 1791 
z
M 3481 434 
Q 3481 -459 3084 -895 
Q 2688 -1331 1869 -1331 
Q 1566 -1331 1297 -1286 
Q 1028 -1241 775 -1147 
L 775 -588 
Q 1028 -725 1275 -790 
Q 1522 -856 1778 -856 
Q 2344 -856 2625 -561 
Q 2906 -266 2906 331 
L 2906 616 
Q 2728 306 2450 153 
Q 2172 0 1784 0 
Q 1141 0 747 490 
Q 353 981 353 1791 
Q 353 2603 747 3093 
Q 1141 3584 1784 3584 
Q 2172 3584 2450 3431 
Q 2728 3278 2906 2969 
L 2906 3500 
L 3481 3500 
L 3481 434 
z
" transform="scale(0.015625)"/>
       <path id="DejaVuSans-c" d="M 513 4856 
L 1013 4856 
Q 1481 4119 1714 3412 
Q 1947 2706 1947 2009 
Q 1947 1309 1714 600 
Q 1481 -109 1013 -844 
L 513 -844 
Q 928 -128 1133 580 
Q 1338 1288 1338 2009 
Q 1338 2731 1133 3434 
Q 928 4138 513 4856 
z
" transform="scale(0.015625)"/>
      </defs>
      <use xlink:href="#DejaVuSans-2a" transform="translate(0 0.746875)"/>
      <use xlink:href="#DejaVuSans-29" transform="translate(77.490234 0.746875)"/>
      <use xlink:href="#DejaVuSans-2f" transform="translate(135.009766 0.746875)"/>
      <use xlink:href="#DejaVuSans-32" transform="translate(186.722656 0.746875)"/>
      <use xlink:href="#DejaVuSans-33" transform="translate(265.433594 0.746875)"/>
      <use xlink:href="#DejaVuSans-56" transform="translate(323.736328 0.746875)"/>
      <use xlink:href="#DejaVuSans-3" transform="translate(375.835938 0.746875)"/>
      <use xlink:href="#DejaVuSans-23" transform="translate(407.623047 0.746875)"/>
      <use xlink:href="#DejaVuSans-3" transform="translate(507.623047 0.746875)"/>
      <use xlink:href="#DejaVuSans-19" transform="translate(539.410156 0.746875)"/>
      <use xlink:href="#DejaVuSans-17" transform="translate(603.033203 0.746875)"/>
      <use xlink:href="#DejaVuSans-13" transform="translate(666.65625 0.746875)"/>
      <use xlink:href="#DejaVuSans-15" transform="translate(731.236328 42.046875) scale(0.7)"/>
      <use xlink:href="#DejaVuSans-3" transform="translate(778.506836 0.746875)"/>
      <use xlink:href="#DejaVuSans-3" transform="translate(810.293945 0.746875)"/>
      <use xlink:href="#DejaVuSans-b" transform="translate(842.081055 0.746875)"/>
      <use xlink:href="#DejaVuSans-46" transform="translate(881.094727 0.746875)"/>
      <use xlink:href="#DejaVuSans-52" transform="translate(936.075195 0.746875)"/>
      <use xlink:href="#DejaVuSans-50" transform="translate(997.256836 0.746875)"/>
      <use xlink:href="#DejaVuSans-53" transform="translate(1094.668945 0.746875)"/>
      <use xlink:href="#DejaVuSans-58" transform="translate(1158.145508 0.746875)"/>
      <use xlink:href="#DejaVuSans-57" transform="translate(1221.524414 0.746875)"/>
      <use xlink:href="#DejaVuSans-48" transform="translate(1260.733398 0.746875)"/>
      <use xlink:href="#DejaVuSans-3" transform="translate(1322.256836 0.746875)"/>
      <use xlink:href="#DejaVuSans-53" transform="translate(1354.043945 0.746875)"/>
      <use xlink:href="#DejaVuSans-48" transform="translate(1417.520508 0.746875)"/>
      <use xlink:href="#DejaVuSans-55" transform="translate(1479.043945 0.746875)"/>
      <use xlink:href="#DejaVuSans-3" transform="translate(1520.157227 0.746875)"/>
      <use xlink:href="#DejaVuSans-4c" transform="translate(1551.944336 0.746875)"/>
      <use xlink:href="#DejaVuSans-50" transform="translate(1579.727539 0.746875)"/>
      <use xlink:href="#DejaVuSans-44" transform="translate(1677.139648 0.746875)"/>
      <use xlink:href="#DejaVuSans-4a" transform="translate(1738.418945 0.746875)"/>
      <use xlink:href="#DejaVuSans-48" transform="translate(1801.895508 0.746875)"/>
      <use xlink:href="#DejaVuSans-c" transform="translate(1863.418945 0.746875)"/>
     </g>
    </g>
   </g>
   <g id="matplotlib.axis_2">
    <g id="ytick_1">
     <g id="line2d_7">
      <path d="M 57.598359 315.789856 
L 604.438359 315.789856 
" clip-path="url(#p9a9d88a407)" style="fill: none; stroke-dasharray: 2.59,1.12; stroke-dashoffset: 0; stroke: #1f2a3c; stroke-opacity: 0.7; stroke-width: 0.7"/>
     </g>
     <g id="line2d_8">
      <defs>
       <path id="m583e9a7ec0" d="M 0 0 
L -3.5 0 
" style="stroke: #8fa3bf; stroke-width: 0.8"/>
      </defs>
      <g>
       <use xlink:href="#m583e9a7ec0" x="57.598359" y="315.789856" style="fill: #8fa3bf; stroke: #8fa3bf; stroke-width: 0.8"/>
      </g>
     </g>
     <g id="text_8">
      <!-- 10 -->
      <g style="fill: #8fa3bf" transform="translate(36.600859 319.968567) scale(0.11 -0.11)">
       <defs>
        <path id="DejaVuSans-14" d="M 794 531 
L 1825 531 
L 1825 4091 
L 703 3866 
L 703 4441 
L 1819 4666 
L 2450 4666 
L 2450 531 
L 3481 531 
L 3481 0 
L 794 0 
L 794 531 
z
" transform="scale(0.015625)"/>
       </defs>
       <use xlink:href="#DejaVuSans-14"/>
       <use xlink:href="#DejaVuSans-13" transform="translate(63.625 0)"/>
      </g>
     </g>
    </g>
    <g id="ytick_2">
     <g id="line2d_9">
      <path d="M 57.598359 257.10051 
L 604.438359 257.10051 
" clip-path="url(#p9a9d88a407)" style="fill: none; stroke-dasharray: 2.59,1.12; stroke-dashoffset: 0; stroke: #1f2a3c; stroke-opacity: 0.7; stroke-width: 0.7"/>
     </g>
     <g id="line2d_10">
      <g>
       <use xlink:href="#m583e9a7ec0" x="57.598359" y="257.10051" style="fill: #8fa3bf; stroke: #8fa3bf; stroke-width: 0.8"/>
      </g>
     </g>
     <g id="text_9">
      <!-- 11 -->
      <g style="fill: #8fa3bf" transform="translate(36.600859 261.27922) scale(0.11 -0.11)">
       <use xlink:href="#DejaVuSans-14"/>
       <use xlink:href="#DejaVuSans-14" transform="translate(63.625 0)"/>
      </g>
     </g>
    </g>
    <g id="ytick_3">
     <g id="line2d_11">
      <path d="M 57.598359 198.411163 
L 604.438359 198.411163 
" clip-path="url(#p9a9d88a407)" style="fill: none; stroke-dasharray: 2.59,1.12; stroke-dashoffset: 0; stroke: #1f2a3c; stroke-opacity: 0.7; stroke-width: 0.7"/>
     </g>
     <g id="line2d_12">
      <g>
       <use xlink:href="#m583e9a7ec0" x="57.598359" y="198.411163" style="fill: #8fa3bf; stroke: #8fa3bf; stroke-width: 0.8"/>
      </g>
     </g>
     <g id="text_10">
      <!-- 12 -->
      <g style="fill: #8fa3bf" transform="translate(36.600859 202.589874) scale(0.11 -0.11)">
       <use xlink:href="#DejaVuSans-14"/>
       <use xlink:href="#DejaVuSans-15" transform="translate(63.625 0)"/>
      </g>
     </g>
    </g>
    <g id="ytick_4">
     <g id="line2d_13">
      <path d="M 57.598359 139.721817 
L 604.438359 139.721817 
" clip-path="url(#p9a9d88a407)" style="fill: none; stroke-dasharray: 2.59,1.12; stroke-dashoffset: 0; stroke: #1f2a3c; stroke-opacity: 0.7; stroke-width: 0.7"/>
     </g>
     <g id="line2d_14">
      <g>
       <use xlink:href="#m583e9a7ec0" x="57.598359" y="139.721817" style="fill: #8fa3bf; stroke: #8fa3bf; stroke-width: 0.8"/>
      </g>
     </g>
     <g id="text_11">
      <!-- 13 -->
      <g style="fill: #8fa3bf" transform="translate(36.600859 143.900528) scale(0.11 -0.11)">
       <use xlink:href="#DejaVuSans-14"/>
       <use xlink:href="#DejaVuSans-16" transform="translate(63.625 0)"/>
      </g>
     </g>
    </g>
    <g id="ytick_5">
     <g id="line2d_15">
      <path d="M 57.598359 81.032471 
L 604.438359 81.032471 
" clip-path="url(#p9a9d88a407)" style="fill: none; stroke-dasharray: 2.59,1.12; stroke-dashoffset: 0; stroke: #1f2a3c; stroke-opacity: 0.7; stroke-width: 0.7"/>
     </g>
     <g id="line2d_16">
      <g>
       <use xlink:href="#m583e9a7ec0" x="57.598359" y="81.032471" style="fill: #8fa3bf; stroke: #8fa3bf; stroke-width: 0.8"/>
      </g>
     </g>
     <g id="text_12">
      <!-- 14 -->
      <g style="fill: #8fa3bf" transform="translate(36.600859 85.211182) scale(0.11 -0.11)">
       <use xlink:href="#DejaVuSans-14"/>
       <use xlink:href="#DejaVuSans-17" transform="translate(63.625 0)"/>
      </g>
     </g>
    </g>
    <g id="text_13">
     <!-- Parameters (millions) -->
     <g style="fill: #e6edf7" transform="translate(29.958281 266.934422) rotate(-90) scale(0.11 -0.11)">
      <defs>
       <path id="DejaVuSans-4f" d="M 603 4863 
L 1178 4863 
L 1178 0 
L 603 0 
L 603 4863 
z
" transform="scale(0.015625)"/>
       <path id="DejaVuSans-51" d="M 3513 2113 
L 3513 0 
L 2938 0 
L 2938 2094 
Q 2938 2591 2744 2837 
Q 2550 3084 2163 3084 
Q 1697 3084 1428 2787 
Q 1159 2491 1159 1978 
L 1159 0 
L 581 0 
L 581 3500 
L 1159 3500 
L 1159 2956 
Q 1366 3272 1645 3428 
Q 1925 3584 2291 3584 
Q 2894 3584 3203 3211 
Q 3513 2838 3513 2113 
z
" transform="scale(0.015625)"/>
      </defs>
      <use xlink:href="#DejaVuSans-33"/>
      <use xlink:href="#DejaVuSans-44" transform="translate(55.8125 0)"/>
      <use xlink:href="#DejaVuSans-55" transform="translate(117.09375 0)"/>
      <use xlink:href="#DejaVuSans-44" transform="translate(158.203125 0)"/>
      <use xlink:href="#DejaVuSans-50" transform="translate(219.484375 0)"/>
      <use xlink:href="#DejaVuSans-48" transform="translate(316.890625 0)"/>
      <use xlink:href="#DejaVuSans-57" transform="translate(378.421875 0)"/>
      <use xlink:href="#DejaVuSans-48" transform="translate(417.625 0)"/>
      <use xlink:href="#DejaVuSans-55" transform="translate(479.15625 0)"/>
      <use xlink:href="#DejaVuSans-56" transform="translate(520.265625 0)"/>
      <use xlink:href="#DejaVuSans-3" transform="translate(572.359375 0)"/>
      <use xlink:href="#DejaVuSans-b" transform="translate(604.140625 0)"/>
      <use xlink:href="#DejaVuSans-50" transform="translate(643.15625 0)"/>
      <use xlink:href="#DejaVuSans-4c" transform="translate(740.5625 0)"/>
      <use xlink:href="#DejaVuSans-4f" transform="translate(768.34375 0)"/>
      <use xlink:href="#DejaVuSans-4f" transform="translate(796.125 0)"/>
      <use xlink:href="#DejaVuSans-4c" transform="translate(823.90625 0)"/>
      <use xlink:href="#DejaVuSans-52" transform="translate(851.6875 0)"/>
      <use xlink:href="#DejaVuSans-51" transform="translate(912.875 0)"/>
      <use xlink:href="#DejaVuSans-56" transform="translate(976.25 0)"/>
      <use xlink:href="#DejaVuSans-c" transform="translate(1028.34375 0)"/>
     </g>
    </g>
   </g>
   <g id="line2d_17">
    <path d="M 82.454723 349.349656 
L 92.412483 348.836887 
L 98.560828 323.220044 
L 100.217426 313.592879 
L 315.456806 90.447768 
L 579.581996 67.109656 
L 579.581996 67.109656 
" clip-path="url(#p9a9d88a407)" style="fill: none; stroke: #1f2a3c; stroke-width: 1.2; stroke-linecap: square"/>
   </g>
   <g id="patch_3">
    <path d="M 57.598359 363.461656 
L 57.598359 52.997656 
" style="fill: none; stroke: #1f2a3c; stroke-width: 0.8; stroke-linejoin: miter; stroke-linecap: square"/>
   </g>
   <g id="patch_4">
    <path d="M 57.598359 363.461656 
L 604.438359 363.461656 
" style="fill: none; stroke: #1f2a3c; stroke-width: 0.8; stroke-linejoin: miter; stroke-linecap: square"/>
   </g>
   <g id="PathCollection_1">
    <defs>
     <path id="m24f11cce76" d="M 0 7.071068 
C 1.875269 7.071068 3.673985 6.326016 5 5 
C 6.326016 3.673985 7.071068 1.875269 7.071068 0 
C 7.071068 -1.875269 6.326016 -3.673985 5 -5 
C 3.673985 -6.326016 1.875269 -7.071068 0 -7.071068 
C -1.875269 -7.071068 -3.673985 -6.326016 -5 -5 
C -6.326016 -3.673985 -7.071068 -1.875269 -7.071068 0 
C -7.071068 1.875269 -6.326016 3.673985 -5 5 
C -3.673985 6.326016 -1.875269 7.071068 0 7.071068 
z
" style="stroke: #0a0e17; stroke-width: 1.6"/>
    </defs>
    <g clip-path="url(#p9a9d88a407)">
     <use xlink:href="#m24f11cce76" x="82.454723" y="349.349656" style="fill: #00ffff; stroke: #0a0e17; stroke-width: 1.6"/>
    </g>
   </g>
   <g id="text_14">
    <!-- YOLO11 baseline -->
    <g style="fill: #e6edf7" transform="translate(93.454723 367.349656) scale(0.095 -0.095)">
     <defs>
      <path id="DejaVuSans-3c" d="M -13 4666 
L 666 4666 
L 1959 2747 
L 3244 4666 
L 3922 4666 
L 2272 2222 
L 2272 0 
L 1638 0 
L 1638 2222 
L -13 4666 
z
" transform="scale(0.015625)"/>
      <path id="DejaVuSans-45" d="M 3116 1747 
Q 3116 2381 2855 2742 
Q 2594 3103 2138 3103 
Q 1681 3103 1420 2742 
Q 1159 2381 1159 1747 
Q 1159 1113 1420 752 
Q 1681 391 2138 391 
Q 2594 391 2855 752 
Q 3116 1113 3116 1747 
z
M 1159 2969 
Q 1341 3281 1617 3432 
Q 1894 3584 2278 3584 
Q 2916 3584 3314 3078 
Q 3713 2572 3713 1747 
Q 3713 922 3314 415 
Q 2916 -91 2278 -91 
Q 1894 -91 1617 61 
Q 1341 213 1159 525 
L 1159 0 
L 581 0 
L 581 4863 
L 1159 4863 
L 1159 2969 
z
" transform="scale(0.015625)"/>
     </defs>
     <use xlink:href="#DejaVuSans-3c"/>
     <use xlink:href="#DejaVuSans-32" transform="translate(55.609375 0)"/>
     <use xlink:href="#DejaVuSans-2f" transform="translate(134.328125 0)"/>
     <use xlink:href="#DejaVuSans-32" transform="translate(186.484375 0)"/>
     <use xlink:href="#DejaVuSans-14" transform="translate(265.203125 0)"/>
     <use xlink:href="#DejaVuSans-14" transform="translate(328.828125 0)"/>
     <use xlink:href="#DejaVuSans-3" transform="translate(392.453125 0)"/>
     <use xlink:href="#DejaVuSans-45" transform="translate(424.234375 0)"/>
     <use xlink:href="#DejaVuSans-44" transform="translate(487.71875 0)"/>
     <use xlink:href="#DejaVuSans-56" transform="translate(549 0)"/>
     <use xlink:href="#DejaVuSans-48" transform="translate(601.09375 0)"/>
     <use xlink:href="#DejaVuSans-4f" transform="translate(662.625 0)"/>
     <use xlink:href="#DejaVuSans-4c" transform="translate(690.40625 0)"/>
     <use xlink:href="#DejaVuSans-51" transform="translate(718.1875 0)"/>
     <use xlink:href="#DejaVuSans-48" transform="translate(781.5625 0)"/>
    </g>
   </g>
   <g id="PathCollection_2">
    <defs>
     <path id="me34735bd53" d="M 0 7.071068 
C 1.875269 7.071068 3.673985 6.326016 5 5 
C 6.326016 3.673985 7.071068 1.875269 7.071068 0 
C 7.071068 -1.875269 6.326016 -3.673985 5 -5 
C 3.673985 -6.326016 1.875269 -7.071068 0 -7.071068 
C -1.875269 -7.071068 -3.673985 -6.326016 -5 -5 
C -6.326016 -3.673985 -7.071068 -1.875269 -7.071068 0 
C -7.071068 1.875269 -6.326016 3.673985 -5 5 
C -3.673985 6.326016 -1.875269 7.071068 0 7.071068 
z
" style="stroke: #0a0e17; stroke-width: 1.6"/>
    </defs>
    <g clip-path="url(#p9a9d88a407)">
     <use xlink:href="#me34735bd53" x="92.412483" y="348.836887" style="fill: #2ad5ff; stroke: #0a0e17; stroke-width: 1.6"/>
    </g>
   </g>
   <g id="text_15">
    <!-- +SFE -->
    <g style="fill: #e6edf7" transform="translate(103.412483 366.836887) scale(0.095 -0.095)">
     <defs>
      <path id="DejaVuSans-e" d="M 2944 4013 
L 2944 2272 
L 4684 2272 
L 4684 1741 
L 2944 1741 
L 2944 0 
L 2419 0 
L 2419 1741 
L 678 1741 
L 678 2272 
L 2419 2272 
L 2419 4013 
L 2944 4013 
z
" transform="scale(0.015625)"/>
      <path id="DejaVuSans-36" d="M 3425 4513 
L 3425 3897 
Q 3066 4069 2747 4153 
Q 2428 4238 2131 4238 
Q 1616 4238 1336 4038 
Q 1056 3838 1056 3469 
Q 1056 3159 1242 3001 
Q 1428 2844 1947 2747 
L 2328 2669 
Q 3034 2534 3370 2195 
Q 3706 1856 3706 1288 
Q 3706 609 3251 259 
Q 2797 -91 1919 -91 
Q 1588 -91 1214 -16 
Q 841 59 441 206 
L 441 856 
Q 825 641 1194 531 
Q 1563 422 1919 422 
Q 2459 422 2753 634 
Q 3047 847 3047 1241 
Q 3047 1584 2836 1778 
Q 2625 1972 2144 2069 
L 1759 2144 
Q 1053 2284 737 2584 
Q 422 2884 422 3419 
Q 422 4038 858 4394 
Q 1294 4750 2059 4750 
Q 2388 4750 2728 4690 
Q 3069 4631 3425 4513 
z
" transform="scale(0.015625)"/>
      <path id="DejaVuSans-28" d="M 628 4666 
L 3578 4666 
L 3578 4134 
L 1259 4134 
L 1259 2753 
L 3481 2753 
L 3481 2222 
L 1259 2222 
L 1259 531 
L 3634 531 
L 3634 0 
L 628 0 
L 628 4666 
z
" transform="scale(0.015625)"/>
     </defs>
     <use xlink:href="#DejaVuSans-e"/>
     <use xlink:href="#DejaVuSans-36" transform="translate(83.796875 0)"/>
     <use xlink:href="#DejaVuSans-29" transform="translate(147.28125 0)"/>
     <use xlink:href="#DejaVuSans-28" transform="translate(204.796875 0)"/>
    </g>
   </g>
   <g id="PathCollection_3">
    <defs>
     <path id="m16dd706969" d="M 0 7.071068 
C 1.875269 7.071068 3.673985 6.326016 5 5 
C 6.326016 3.673985 7.071068 1.875269 7.071068 0 
C 7.071068 -1.875269 6.326016 -3.673985 5 -5 
C 3.673985 -6.326016 1.875269 -7.071068 0 -7.071068 
C -1.875269 -7.071068 -3.673985 -6.326016 -5 -5 
C -6.326016 -3.673985 -7.071068 -1.875269 -7.071068 0 
C -7.071068 1.875269 -6.326016 3.673985 -5 5 
C -3.673985 6.326016 -1.875269 7.071068 0 7.071068 
z
" style="stroke: #0a0e17; stroke-width: 1.6"/>
    </defs>
    <g clip-path="url(#p9a9d88a407)">
     <use xlink:href="#m16dd706969" x="98.560828" y="323.220044" style="fill: #55aaff; stroke: #0a0e17; stroke-width: 1.6"/>
    </g>
   </g>
   <g id="text_16">
    <!-- +SFM -->
    <g style="fill: #e6edf7" transform="translate(109.560828 341.220044) scale(0.095 -0.095)">
     <defs>
      <path id="DejaVuSans-30" d="M 628 4666 
L 1569 4666 
L 2759 1491 
L 3956 4666 
L 4897 4666 
L 4897 0 
L 4281 0 
L 4281 4097 
L 3078 897 
L 2444 897 
L 1241 4097 
L 1241 0 
L 628 0 
L 628 4666 
z
" transform="scale(0.015625)"/>
     </defs>
     <use xlink:href="#DejaVuSans-e"/>
     <use xlink:href="#DejaVuSans-36" transform="translate(83.796875 0)"/>
     <use xlink:href="#DejaVuSans-29" transform="translate(147.28125 0)"/>
     <use xlink:href="#DejaVuSans-30" transform="translate(204.796875 0)"/>
    </g>
   </g>
   <g id="PathCollection_4">
    <defs>
     <path id="m24ba8ac499" d="M 0 7.071068 
C 1.875269 7.071068 3.673985 6.326016 5 5 
C 6.326016 3.673985 7.071068 1.875269 7.071068 0 
C 7.071068 -1.875269 6.326016 -3.673985 5 -5 
C 3.673985 -6.326016 1.875269 -7.071068 0 -7.071068 
C -1.875269 -7.071068 -3.673985 -6.326016 -5 -5 
C -6.326016 -3.673985 -7.071068 -1.875269 -7.071068 0 
C -7.071068 1.875269 -6.326016 3.673985 -5 5 
C -3.673985 6.326016 -1.875269 7.071068 0 7.071068 
z
" style="stroke: #0a0e17; stroke-width: 1.6"/>
    </defs>
    <g clip-path="url(#p9a9d88a407)">
     <use xlink:href="#m24ba8ac499" x="100.217426" y="313.592879" style="fill: #807fff; stroke: #0a0e17; stroke-width: 1.6"/>
    </g>
   </g>
   <g id="text_17">
    <!-- +SAA -->
    <g style="fill: #e6edf7" transform="translate(111.217426 331.592879) scale(0.095 -0.095)">
     <defs>
      <path id="DejaVuSans-24" d="M 2188 4044 
L 1331 1722 
L 3047 1722 
L 2188 4044 
z
M 1831 4666 
L 2547 4666 
L 4325 0 
L 3669 0 
L 3244 1197 
L 1141 1197 
L 716 0 
L 50 0 
L 1831 4666 
z
" transform="scale(0.015625)"/>
     </defs>
     <use xlink:href="#DejaVuSans-e"/>
     <use xlink:href="#DejaVuSans-36" transform="translate(83.796875 0)"/>
     <use xlink:href="#DejaVuSans-24" transform="translate(149.140625 0)"/>
     <use xlink:href="#DejaVuSans-24" transform="translate(220.328125 0)"/>
    </g>
   </g>
   <g id="PathCollection_5">
    <defs>
     <path id="m692440154c" d="M 0 7.071068 
C 1.875269 7.071068 3.673985 6.326016 5 5 
C 6.326016 3.673985 7.071068 1.875269 7.071068 0 
C 7.071068 -1.875269 6.326016 -3.673985 5 -5 
C 3.673985 -6.326016 1.875269 -7.071068 0 -7.071068 
C -1.875269 -7.071068 -3.673985 -6.326016 -5 -5 
C -6.326016 -3.673985 -7.071068 -1.875269 -7.071068 0 
C -7.071068 1.875269 -6.326016 3.673985 -5 5 
C -3.673985 6.326016 -1.875269 7.071068 0 7.071068 
z
" style="stroke: #0a0e17; stroke-width: 1.6"/>
    </defs>
    <g clip-path="url(#p9a9d88a407)">
     <use xlink:href="#m692440154c" x="315.456806" y="90.447768" style="fill: #aa55ff; stroke: #0a0e17; stroke-width: 1.6"/>
    </g>
   </g>
   <g id="text_18">
    <!-- +AMF -->
    <g style="fill: #e6edf7" transform="translate(326.456806 78.447768) scale(0.095 -0.095)">
     <use xlink:href="#DejaVuSans-e"/>
     <use xlink:href="#DejaVuSans-24" transform="translate(83.796875 0)"/>
     <use xlink:href="#DejaVuSans-30" transform="translate(152.203125 0)"/>
     <use xlink:href="#DejaVuSans-29" transform="translate(238.484375 0)"/>
    </g>
   </g>
   <g id="PathCollection_6">
    <defs>
     <path id="m2e88a68d68" d="M 0 7.071068 
C 1.875269 7.071068 3.673985 6.326016 5 5 
C 6.326016 3.673985 7.071068 1.875269 7.071068 0 
C 7.071068 -1.875269 6.326016 -3.673985 5 -5 
C 3.673985 -6.326016 1.875269 -7.071068 0 -7.071068 
C -1.875269 -7.071068 -3.673985 -6.326016 -5 -5 
C -6.326016 -3.673985 -7.071068 -1.875269 -7.071068 0 
C -7.071068 1.875269 -6.326016 3.673985 -5 5 
C -3.673985 6.326016 -1.875269 7.071068 0 7.071068 
z
" style="stroke: #0a0e17; stroke-width: 1.6"/>
    </defs>
    <g clip-path="url(#p9a9d88a407)">
     <use xlink:href="#m2e88a68d68" x="579.581996" y="67.109656" style="fill: #d52aff; stroke: #0a0e17; stroke-width: 1.6"/>
    </g>
   </g>
   <g id="text_19">
    <!-- +P2 head -->
    <g style="fill: #e6edf7" transform="translate(590.581996 55.109656) scale(0.095 -0.095)">
     <defs>
      <path id="DejaVuSans-4b" d="M 3513 2113 
L 3513 0 
L 2938 0 
L 2938 2094 
Q 2938 2591 2744 2837 
Q 2550 3084 2163 3084 
Q 1697 3084 1428 2787 
Q 1159 2491 1159 1978 
L 1159 0 
L 581 0 
L 581 4863 
L 1159 4863 
L 1159 2956 
Q 1366 3272 1645 3428 
Q 1925 3584 2291 3584 
Q 2894 3584 3203 3211 
Q 3513 2838 3513 2113 
z
" transform="scale(0.015625)"/>
      <path id="DejaVuSans-47" d="M 2906 2969 
L 2906 4863 
L 3481 4863 
L 3481 0 
L 2906 0 
L 2906 525 
Q 2725 213 2448 61 
Q 2172 -91 1784 -91 
Q 1150 -91 751 415 
Q 353 922 353 1747 
Q 353 2572 751 3078 
Q 1150 3584 1784 3584 
Q 2172 3584 2448 3432 
Q 2725 3281 2906 2969 
z
M 947 1747 
Q 947 1113 1208 752 
Q 1469 391 1925 391 
Q 2381 391 2643 752 
Q 2906 1113 2906 1747 
Q 2906 2381 2643 2742 
Q 2381 3103 1925 3103 
Q 1469 3103 1208 2742 
Q 947 2381 947 1747 
z
" transform="scale(0.015625)"/>
     </defs>
     <use xlink:href="#DejaVuSans-e"/>
     <use xlink:href="#DejaVuSans-33" transform="translate(83.796875 0)"/>
     <use xlink:href="#DejaVuSans-15" transform="translate(144.09375 0)"/>
     <use xlink:href="#DejaVuSans-3" transform="translate(207.71875 0)"/>
     <use xlink:href="#DejaVuSans-4b" transform="translate(239.5 0)"/>
     <use xlink:href="#DejaVuSans-48" transform="translate(302.875 0)"/>
     <use xlink:href="#DejaVuSans-44" transform="translate(364.40625 0)"/>
     <use xlink:href="#DejaVuSans-47" transform="translate(425.6875 0)"/>
    </g>
   </g>
   <g id="PathCollection_7">
    <defs>
     <path id="mf7667d0f06" d="M 0 7.071068 
C 1.875269 7.071068 3.673985 6.326016 5 5 
C 6.326016 3.673985 7.071068 1.875269 7.071068 0 
C 7.071068 -1.875269 6.326016 -3.673985 5 -5 
C 3.673985 -6.326016 1.875269 -7.071068 0 -7.071068 
C -1.875269 -7.071068 -3.673985 -6.326016 -5 -5 
C -6.326016 -3.673985 -7.071068 -1.875269 -7.071068 0 
C -7.071068 1.875269 -6.326016 3.673985 -5 5 
C -3.673985 6.326016 -1.875269 7.071068 0 7.071068 
z
" style="stroke: #0a0e17; stroke-width: 1.6"/>
    </defs>
    <g clip-path="url(#p9a9d88a407)">
     <use xlink:href="#mf7667d0f06" x="579.581996" y="67.109656" style="fill: #ff00ff; stroke: #0a0e17; stroke-width: 1.6"/>
    </g>
   </g>
   <g id="text_20">
    <!-- FULL +SAR loss -->
    <g style="fill: #e6edf7" transform="translate(590.581996 85.109656) scale(0.095 -0.095)">
     <defs>
      <path id="DejaVuSans-38" d="M 556 4666 
L 1191 4666 
L 1191 1831 
Q 1191 1081 1462 751 
Q 1734 422 2344 422 
Q 2950 422 3222 751 
Q 3494 1081 3494 1831 
L 3494 4666 
L 4128 4666 
L 4128 1753 
Q 4128 841 3676 375 
Q 3225 -91 2344 -91 
Q 1459 -91 1007 375 
Q 556 841 556 1753 
L 556 4666 
z
" transform="scale(0.015625)"/>
      <path id="DejaVuSans-35" d="M 2841 2188 
Q 3044 2119 3236 1894 
Q 3428 1669 3622 1275 
L 4263 0 
L 3584 0 
L 2988 1197 
Q 2756 1666 2539 1819 
Q 2322 1972 1947 1972 
L 1259 1972 
L 1259 0 
L 628 0 
L 628 4666 
L 2053 4666 
Q 2853 4666 3247 4331 
Q 3641 3997 3641 3322 
Q 3641 2881 3436 2590 
Q 3231 2300 2841 2188 
z
M 1259 4147 
L 1259 2491 
L 2053 2491 
Q 2509 2491 2742 2702 
Q 2975 2913 2975 3322 
Q 2975 3731 2742 3939 
Q 2509 4147 2053 4147 
L 1259 4147 
z
" transform="scale(0.015625)"/>
     </defs>
     <use xlink:href="#DejaVuSans-29"/>
     <use xlink:href="#DejaVuSans-38" transform="translate(57.515625 0)"/>
     <use xlink:href="#DejaVuSans-2f" transform="translate(130.703125 0)"/>
     <use xlink:href="#DejaVuSans-2f" transform="translate(186.421875 0)"/>
     <use xlink:href="#DejaVuSans-3" transform="translate(242.140625 0)"/>
     <use xlink:href="#DejaVuSans-e" transform="translate(273.921875 0)"/>
     <use xlink:href="#DejaVuSans-36" transform="translate(357.71875 0)"/>
     <use xlink:href="#DejaVuSans-24" transform="translate(423.0625 0)"/>
     <use xlink:href="#DejaVuSans-35" transform="translate(491.46875 0)"/>
     <use xlink:href="#DejaVuSans-3" transform="translate(560.953125 0)"/>
     <use xlink:href="#DejaVuSans-4f" transform="translate(592.734375 0)"/>
     <use xlink:href="#DejaVuSans-52" transform="translate(620.515625 0)"/>
     <use xlink:href="#DejaVuSans-56" transform="translate(681.703125 0)"/>
     <use xlink:href="#DejaVuSans-56" transform="translate(733.796875 0)"/>
    </g>
   </g>
   <g id="text_21">
    <!-- Both axes are profiled, not estimated. Curve of the ladder: the multi-scale fusion and the P2 head dominate, -->
    <g style="fill: #8fa3bf" transform="translate(57.598359 33.704944) scale(0.095 -0.095)">
     <defs>
      <path id="DejaVuSans-25" d="M 1259 2228 
L 1259 519 
L 2272 519 
Q 2781 519 3026 730 
Q 3272 941 3272 1375 
Q 3272 1813 3026 2020 
Q 2781 2228 2272 2228 
L 1259 2228 
z
M 1259 4147 
L 1259 2741 
L 2194 2741 
Q 2656 2741 2882 2914 
Q 3109 3088 3109 3444 
Q 3109 3797 2882 3972 
Q 2656 4147 2194 4147 
L 1259 4147 
z
M 628 4666 
L 2241 4666 
Q 2963 4666 3353 4366 
Q 3744 4066 3744 3513 
Q 3744 3084 3544 2831 
Q 3344 2578 2956 2516 
Q 3422 2416 3680 2098 
Q 3938 1781 3938 1306 
Q 3938 681 3513 340 
Q 3088 0 2303 0 
L 628 0 
L 628 4666 
z
" transform="scale(0.015625)"/>
      <path id="DejaVuSans-5b" d="M 3513 3500 
L 2247 1797 
L 3578 0 
L 2900 0 
L 1881 1375 
L 863 0 
L 184 0 
L 1544 1831 
L 300 3500 
L 978 3500 
L 1906 2253 
L 2834 3500 
L 3513 3500 
z
" transform="scale(0.015625)"/>
      <path id="DejaVuSans-13af" d="M 3431 3500 
L 3431 0 
L 2853 0 
L 2853 3053 
L 1275 3053 
L 1275 0 
L 697 0 
L 697 3053 
L 147 3053 
L 147 3500 
L 697 3500 
L 697 3744 
Q 697 4316 967 4589 
Q 1238 4863 1797 4863 
L 2375 4863 
L 2375 4384 
L 1825 4384 
Q 1516 4384 1395 4259 
Q 1275 4134 1275 3809 
L 1275 3500 
L 3431 3500 
z
M 2853 4856 
L 3431 4856 
L 3431 4128 
L 2853 4128 
L 2853 4856 
z
" transform="scale(0.015625)"/>
      <path id="DejaVuSans-f" d="M 750 794 
L 1409 794 
L 1409 256 
L 897 -744 
L 494 -744 
L 750 256 
L 750 794 
z
" transform="scale(0.015625)"/>
      <path id="DejaVuSans-11" d="M 684 794 
L 1344 794 
L 1344 0 
L 684 0 
L 684 794 
z
" transform="scale(0.015625)"/>
      <path id="DejaVuSans-26" d="M 4122 4306 
L 4122 3641 
Q 3803 3938 3442 4084 
Q 3081 4231 2675 4231 
Q 1875 4231 1450 3742 
Q 1025 3253 1025 2328 
Q 1025 1406 1450 917 
Q 1875 428 2675 428 
Q 3081 428 3442 575 
Q 3803 722 4122 1019 
L 4122 359 
Q 3791 134 3420 21 
Q 3050 -91 2638 -91 
Q 1578 -91 968 557 
Q 359 1206 359 2328 
Q 359 3453 968 4101 
Q 1578 4750 2638 4750 
Q 3056 4750 3426 4639 
Q 3797 4528 4122 4306 
z
" transform="scale(0.015625)"/>
      <path id="DejaVuSans-59" d="M 191 3500 
L 800 3500 
L 1894 563 
L 2988 3500 
L 3597 3500 
L 2284 0 
L 1503 0 
L 191 3500 
z
" transform="scale(0.015625)"/>
      <path id="DejaVuSans-49" d="M 2375 4863 
L 2375 4384 
L 1825 4384 
Q 1516 4384 1395 4259 
Q 1275 4134 1275 3809 
L 1275 3500 
L 2222 3500 
L 2222 3053 
L 1275 3053 
L 1275 0 
L 697 0 
L 697 3053 
L 147 3053 
L 147 3500 
L 697 3500 
L 697 3744 
Q 697 4328 969 4595 
Q 1241 4863 1831 4863 
L 2375 4863 
z
" transform="scale(0.015625)"/>
      <path id="DejaVuSans-1d" d="M 750 794 
L 1409 794 
L 1409 0 
L 750 0 
L 750 794 
z
M 750 3309 
L 1409 3309 
L 1409 2516 
L 750 2516 
L 750 3309 
z
" transform="scale(0.015625)"/>
      <path id="DejaVuSans-10" d="M 313 2009 
L 1997 2009 
L 1997 1497 
L 313 1497 
L 313 2009 
z
" transform="scale(0.015625)"/>
     </defs>
     <use xlink:href="#DejaVuSans-25"/>
     <use xlink:href="#DejaVuSans-52" transform="translate(68.609375 0)"/>
     <use xlink:href="#DejaVuSans-57" transform="translate(129.796875 0)"/>
     <use xlink:href="#DejaVuSans-4b" transform="translate(169 0)"/>
     <use xlink:href="#DejaVuSans-3" transform="translate(232.375 0)"/>
     <use xlink:href="#DejaVuSans-44" transform="translate(264.15625 0)"/>
     <use xlink:href="#DejaVuSans-5b" transform="translate(325.4375 0)"/>
     <use xlink:href="#DejaVuSans-48" transform="translate(381.546875 0)"/>
     <use xlink:href="#DejaVuSans-56" transform="translate(443.078125 0)"/>
     <use xlink:href="#DejaVuSans-3" transform="translate(495.171875 0)"/>
     <use xlink:href="#DejaVuSans-44" transform="translate(526.953125 0)"/>
     <use xlink:href="#DejaVuSans-55" transform="translate(588.234375 0)"/>
     <use xlink:href="#DejaVuSans-48" transform="translate(627.140625 0)"/>
     <use xlink:href="#DejaVuSans-3" transform="translate(688.671875 0)"/>
     <use xlink:href="#DejaVuSans-53" transform="translate(720.453125 0)"/>
     <use xlink:href="#DejaVuSans-55" transform="translate(783.9375 0)"/>
     <use xlink:href="#DejaVuSans-52" transform="translate(822.84375 0)"/>
     <use xlink:href="#DejaVuSans-13af" transform="translate(884.03125 0)"/>
     <use xlink:href="#DejaVuSans-4f" transform="translate(947.015625 0)"/>
     <use xlink:href="#DejaVuSans-48" transform="translate(974.796875 0)"/>
     <use xlink:href="#DejaVuSans-47" transform="translate(1036.328125 0)"/>
     <use xlink:href="#DejaVuSans-f" transform="translate(1099.8125 0)"/>
     <use xlink:href="#DejaVuSans-3" transform="translate(1131.59375 0)"/>
     <use xlink:href="#DejaVuSans-51" transform="translate(1163.375 0)"/>
     <use xlink:href="#DejaVuSans-52" transform="translate(1226.75 0)"/>
     <use xlink:href="#DejaVuSans-57" transform="translate(1287.9375 0)"/>
     <use xlink:href="#DejaVuSans-3" transform="translate(1327.140625 0)"/>
     <use xlink:href="#DejaVuSans-48" transform="translate(1358.921875 0)"/>
     <use xlink:href="#DejaVuSans-56" transform="translate(1420.453125 0)"/>
     <use xlink:href="#DejaVuSans-57" transform="translate(1472.546875 0)"/>
     <use xlink:href="#DejaVuSans-4c" transform="translate(1511.75 0)"/>
     <use xlink:href="#DejaVuSans-50" transform="translate(1539.53125 0)"/>
     <use xlink:href="#DejaVuSans-44" transform="translate(1636.9375 0)"/>
     <use xlink:href="#DejaVuSans-57" transform="translate(1698.21875 0)"/>
     <use xlink:href="#DejaVuSans-48" transform="translate(1737.421875 0)"/>
     <use xlink:href="#DejaVuSans-47" transform="translate(1798.953125 0)"/>
     <use xlink:href="#DejaVuSans-11" transform="translate(1862.4375 0)"/>
     <use xlink:href="#DejaVuSans-3" transform="translate(1894.21875 0)"/>
     <use xlink:href="#DejaVuSans-26" transform="translate(1926 0)"/>
     <use xlink:href="#DejaVuSans-58" transform="translate(1995.828125 0)"/>
     <use xlink:href="#DejaVuSans-55" transform="translate(2059.203125 0)"/>
     <use xlink:href="#DejaVuSans-59" transform="translate(2100.3125 0)"/>
     <use xlink:href="#DejaVuSans-48" transform="translate(2159.5 0)"/>
     <use xlink:href="#DejaVuSans-3" transform="translate(2221.03125 0)"/>
     <use xlink:href="#DejaVuSans-52" transform="translate(2252.8125 0)"/>
     <use xlink:href="#DejaVuSans-49" transform="translate(2314 0)"/>
     <use xlink:href="#DejaVuSans-3" transform="translate(2349.203125 0)"/>
     <use xlink:href="#DejaVuSans-57" transform="translate(2380.984375 0)"/>
     <use xlink:href="#DejaVuSans-4b" transform="translate(2420.1875 0)"/>
     <use xlink:href="#DejaVuSans-48" transform="translate(2483.5625 0)"/>
     <use xlink:href="#DejaVuSans-3" transform="translate(2545.09375 0)"/>
     <use xlink:href="#DejaVuSans-4f" transform="translate(2576.875 0)"/>
     <use xlink:href="#DejaVuSans-44" transform="translate(2604.65625 0)"/>
     <use xlink:href="#DejaVuSans-47" transform="translate(2665.9375 0)"/>
     <use xlink:href="#DejaVuSans-47" transform="translate(2729.421875 0)"/>
     <use xlink:href="#DejaVuSans-48" transform="translate(2792.90625 0)"/>
     <use xlink:href="#DejaVuSans-55" transform="translate(2854.4375 0)"/>
     <use xlink:href="#DejaVuSans-1d" transform="translate(2893.796875 0)"/>
     <use xlink:href="#DejaVuSans-3" transform="translate(2927.484375 0)"/>
     <use xlink:href="#DejaVuSans-57" transform="translate(2959.265625 0)"/>
     <use xlink:href="#DejaVuSans-4b" transform="translate(2998.46875 0)"/>
     <use xlink:href="#DejaVuSans-48" transform="translate(3061.84375 0)"/>
     <use xlink:href="#DejaVuSans-3" transform="translate(3123.375 0)"/>
     <use xlink:href="#DejaVuSans-50" transform="translate(3155.15625 0)"/>
     <use xlink:href="#DejaVuSans-58" transform="translate(3252.5625 0)"/>
     <use xlink:href="#DejaVuSans-4f" transform="translate(3315.9375 0)"/>
     <use xlink:href="#DejaVuSans-57" transform="translate(3343.71875 0)"/>
     <use xlink:href="#DejaVuSans-4c" transform="translate(3382.921875 0)"/>
     <use xlink:href="#DejaVuSans-10" transform="translate(3410.703125 0)"/>
     <use xlink:href="#DejaVuSans-56" transform="translate(3446.78125 0)"/>
     <use xlink:href="#DejaVuSans-46" transform="translate(3498.875 0)"/>
     <use xlink:href="#DejaVuSans-44" transform="translate(3553.859375 0)"/>
     <use xlink:href="#DejaVuSans-4f" transform="translate(3615.140625 0)"/>
     <use xlink:href="#DejaVuSans-48" transform="translate(3642.921875 0)"/>
     <use xlink:href="#DejaVuSans-3" transform="translate(3704.453125 0)"/>
     <use xlink:href="#DejaVuSans-49" transform="translate(3736.234375 0)"/>
     <use xlink:href="#DejaVuSans-58" transform="translate(3771.4375 0)"/>
     <use xlink:href="#DejaVuSans-56" transform="translate(3834.8125 0)"/>
     <use xlink:href="#DejaVuSans-4c" transform="translate(3886.90625 0)"/>
     <use xlink:href="#DejaVuSans-52" transform="translate(3914.6875 0)"/>
     <use xlink:href="#DejaVuSans-51" transform="translate(3975.875 0)"/>
     <use xlink:href="#DejaVuSans-3" transform="translate(4039.25 0)"/>
     <use xlink:href="#DejaVuSans-44" transform="translate(4071.03125 0)"/>
     <use xlink:href="#DejaVuSans-51" transform="translate(4132.3125 0)"/>
     <use xlink:href="#DejaVuSans-47" transform="translate(4195.6875 0)"/>
     <use xlink:href="#DejaVuSans-3" transform="translate(4259.171875 0)"/>
     <use xlink:href="#DejaVuSans-57" transform="translate(4290.953125 0)"/>
     <use xlink:href="#DejaVuSans-4b" transform="translate(4330.15625 0)"/>
     <use xlink:href="#DejaVuSans-48" transform="translate(4393.53125 0)"/>
     <use xlink:href="#DejaVuSans-3" transform="translate(4455.0625 0)"/>
     <use xlink:href="#DejaVuSans-33" transform="translate(4486.84375 0)"/>
     <use xlink:href="#DejaVuSans-15" transform="translate(4547.140625 0)"/>
     <use xlink:href="#DejaVuSans-3" transform="translate(4610.765625 0)"/>
     <use xlink:href="#DejaVuSans-4b" transform="translate(4642.546875 0)"/>
     <use xlink:href="#DejaVuSans-48" transform="translate(4705.921875 0)"/>
     <use xlink:href="#DejaVuSans-44" transform="translate(4767.453125 0)"/>
     <use xlink:href="#DejaVuSans-47" transform="translate(4828.734375 0)"/>
     <use xlink:href="#DejaVuSans-3" transform="translate(4892.21875 0)"/>
     <use xlink:href="#DejaVuSans-47" transform="translate(4924 0)"/>
     <use xlink:href="#DejaVuSans-52" transform="translate(4987.484375 0)"/>
     <use xlink:href="#DejaVuSans-50" transform="translate(5048.671875 0)"/>
     <use xlink:href="#DejaVuSans-4c" transform="translate(5146.078125 0)"/>
     <use xlink:href="#DejaVuSans-51" transform="translate(5173.859375 0)"/>
     <use xlink:href="#DejaVuSans-44" transform="translate(5237.234375 0)"/>
     <use xlink:href="#DejaVuSans-57" transform="translate(5298.515625 0)"/>
     <use xlink:href="#DejaVuSans-48" transform="translate(5337.71875 0)"/>
     <use xlink:href="#DejaVuSans-f" transform="translate(5399.25 0)"/>
    </g>
    <!-- so each must earn its place in EXP-005 and EXP-006 before the FULL model is ever trained. -->
    <g style="fill: #8fa3bf" transform="translate(57.598359 45.107542) scale(0.095 -0.095)">
     <defs>
      <path id="DejaVuSans-3b" d="M 403 4666 
L 1081 4666 
L 2241 2931 
L 3406 4666 
L 4084 4666 
L 2584 2425 
L 4184 0 
L 3506 0 
L 2194 1984 
L 872 0 
L 191 0 
L 1856 2491 
L 403 4666 
z
" transform="scale(0.015625)"/>
     </defs>
     <use xlink:href="#DejaVuSans-56"/>
     <use xlink:href="#DejaVuSans-52" transform="translate(52.09375 0)"/>
     <use xlink:href="#DejaVuSans-3" transform="translate(113.28125 0)"/>
     <use xlink:href="#DejaVuSans-48" transform="translate(145.0625 0)"/>
     <use xlink:href="#DejaVuSans-44" transform="translate(206.59375 0)"/>
     <use xlink:href="#DejaVuSans-46" transform="translate(267.875 0)"/>
     <use xlink:href="#DejaVuSans-4b" transform="translate(322.859375 0)"/>
     <use xlink:href="#DejaVuSans-3" transform="translate(386.234375 0)"/>
     <use xlink:href="#DejaVuSans-50" transform="translate(418.015625 0)"/>
     <use xlink:href="#DejaVuSans-58" transform="translate(515.421875 0)"/>
     <use xlink:href="#DejaVuSans-56" transform="translate(578.796875 0)"/>
     <use xlink:href="#DejaVuSans-57" transform="translate(630.890625 0)"/>
     <use xlink:href="#DejaVuSans-3" transform="translate(670.09375 0)"/>
     <use xlink:href="#DejaVuSans-48" transform="translate(701.875 0)"/>
     <use xlink:href="#DejaVuSans-44" transform="translate(763.40625 0)"/>
     <use xlink:href="#DejaVuSans-55" transform="translate(824.6875 0)"/>
     <use xlink:href="#DejaVuSans-51" transform="translate(864.046875 0)"/>
     <use xlink:href="#DejaVuSans-3" transform="translate(927.421875 0)"/>
     <use xlink:href="#DejaVuSans-4c" transform="translate(959.203125 0)"/>
     <use xlink:href="#DejaVuSans-57" transform="translate(986.984375 0)"/>
     <use xlink:href="#DejaVuSans-56" transform="translate(1026.1875 0)"/>
     <use xlink:href="#DejaVuSans-3" transform="translate(1078.28125 0)"/>
     <use xlink:href="#DejaVuSans-53" transform="translate(1110.0625 0)"/>
     <use xlink:href="#DejaVuSans-4f" transform="translate(1173.546875 0)"/>
     <use xlink:href="#DejaVuSans-44" transform="translate(1201.328125 0)"/>
     <use xlink:href="#DejaVuSans-46" transform="translate(1262.609375 0)"/>
     <use xlink:href="#DejaVuSans-48" transform="translate(1317.59375 0)"/>
     <use xlink:href="#DejaVuSans-3" transform="translate(1379.125 0)"/>
     <use xlink:href="#DejaVuSans-4c" transform="translate(1410.90625 0)"/>
     <use xlink:href="#DejaVuSans-51" transform="translate(1438.6875 0)"/>
     <use xlink:href="#DejaVuSans-3" transform="translate(1502.0625 0)"/>
     <use xlink:href="#DejaVuSans-28" transform="translate(1533.84375 0)"/>
     <use xlink:href="#DejaVuSans-3b" transform="translate(1597.03125 0)"/>
     <use xlink:href="#DejaVuSans-33" transform="translate(1665.53125 0)"/>
     <use xlink:href="#DejaVuSans-10" transform="translate(1723.625 0)"/>
     <use xlink:href="#DejaVuSans-13" transform="translate(1759.703125 0)"/>
     <use xlink:href="#DejaVuSans-13" transform="translate(1823.328125 0)"/>
     <use xlink:href="#DejaVuSans-18" transform="translate(1886.953125 0)"/>
     <use xlink:href="#DejaVuSans-3" transform="translate(1950.578125 0)"/>
     <use xlink:href="#DejaVuSans-44" transform="translate(1982.359375 0)"/>
     <use xlink:href="#DejaVuSans-51" transform="translate(2043.640625 0)"/>
     <use xlink:href="#DejaVuSans-47" transform="translate(2107.015625 0)"/>
     <use xlink:href="#DejaVuSans-3" transform="translate(2170.5 0)"/>
     <use xlink:href="#DejaVuSans-28" transform="translate(2202.28125 0)"/>
     <use xlink:href="#DejaVuSans-3b" transform="translate(2265.46875 0)"/>
     <use xlink:href="#DejaVuSans-33" transform="translate(2333.96875 0)"/>
     <use xlink:href="#DejaVuSans-10" transform="translate(2392.0625 0)"/>
     <use xlink:href="#DejaVuSans-13" transform="translate(2428.140625 0)"/>
     <use xlink:href="#DejaVuSans-13" transform="translate(2491.765625 0)"/>
     <use xlink:href="#DejaVuSans-19" transform="translate(2555.390625 0)"/>
     <use xlink:href="#DejaVuSans-3" transform="translate(2619.015625 0)"/>
     <use xlink:href="#DejaVuSans-45" transform="translate(2650.796875 0)"/>
     <use xlink:href="#DejaVuSans-48" transform="translate(2714.28125 0)"/>
     <use xlink:href="#DejaVuSans-49" transform="translate(2775.8125 0)"/>
     <use xlink:href="#DejaVuSans-52" transform="translate(2811.015625 0)"/>
     <use xlink:href="#DejaVuSans-55" transform="translate(2872.203125 0)"/>
     <use xlink:href="#DejaVuSans-48" transform="translate(2911.109375 0)"/>
     <use xlink:href="#DejaVuSans-3" transform="translate(2972.640625 0)"/>
     <use xlink:href="#DejaVuSans-57" transform="translate(3004.421875 0)"/>
     <use xlink:href="#DejaVuSans-4b" transform="translate(3043.625 0)"/>
     <use xlink:href="#DejaVuSans-48" transform="translate(3107 0)"/>
     <use xlink:href="#DejaVuSans-3" transform="translate(3168.53125 0)"/>
     <use xlink:href="#DejaVuSans-29" transform="translate(3200.3125 0)"/>
     <use xlink:href="#DejaVuSans-38" transform="translate(3257.828125 0)"/>
     <use xlink:href="#DejaVuSans-2f" transform="translate(3331.015625 0)"/>
     <use xlink:href="#DejaVuSans-2f" transform="translate(3386.734375 0)"/>
     <use xlink:href="#DejaVuSans-3" transform="translate(3442.453125 0)"/>
     <use xlink:href="#DejaVuSans-50" transform="translate(3474.234375 0)"/>
     <use xlink:href="#DejaVuSans-52" transform="translate(3571.640625 0)"/>
     <use xlink:href="#DejaVuSans-47" transform="translate(3632.828125 0)"/>
     <use xlink:href="#DejaVuSans-48" transform="translate(3696.3125 0)"/>
     <use xlink:href="#DejaVuSans-4f" transform="translate(3757.84375 0)"/>
     <use xlink:href="#DejaVuSans-3" transform="translate(3785.625 0)"/>
     <use xlink:href="#DejaVuSans-4c" transform="translate(3817.40625 0)"/>
     <use xlink:href="#DejaVuSans-56" transform="translate(3845.1875 0)"/>
     <use xlink:href="#DejaVuSans-3" transform="translate(3897.28125 0)"/>
     <use xlink:href="#DejaVuSans-48" transform="translate(3929.0625 0)"/>
     <use xlink:href="#DejaVuSans-59" transform="translate(3990.59375 0)"/>
     <use xlink:href="#DejaVuSans-48" transform="translate(4049.78125 0)"/>
     <use xlink:href="#DejaVuSans-55" transform="translate(4111.3125 0)"/>
     <use xlink:href="#DejaVuSans-3" transform="translate(4152.421875 0)"/>
     <use xlink:href="#DejaVuSans-57" transform="translate(4184.203125 0)"/>
     <use xlink:href="#DejaVuSans-55" transform="translate(4223.40625 0)"/>
     <use xlink:href="#DejaVuSans-44" transform="translate(4264.515625 0)"/>
     <use xlink:href="#DejaVuSans-4c" transform="translate(4325.796875 0)"/>
     <use xlink:href="#DejaVuSans-51" transform="translate(4353.578125 0)"/>
     <use xlink:href="#DejaVuSans-48" transform="translate(4416.953125 0)"/>
     <use xlink:href="#DejaVuSans-47" transform="translate(4478.484375 0)"/>
     <use xlink:href="#DejaVuSans-11" transform="translate(4541.96875 0)"/>
    </g>
   </g>
   <g id="text_22">
    <!-- Where the extra compute actually goes -->
    <g style="fill: #e6edf7" transform="translate(57.598359 32.997656) scale(0.15 -0.15)">
     <defs>
      <path id="DejaVuSans-Bold-3a" d="M 191 4666 
L 1344 4666 
L 2150 1275 
L 2950 4666 
L 4109 4666 
L 4909 1275 
L 5716 4666 
L 6859 4666 
L 5759 0 
L 4372 0 
L 3525 3547 
L 2688 0 
L 1300 0 
L 191 4666 
z
" transform="scale(0.015625)"/>
      <path id="DejaVuSans-Bold-4b" d="M 4056 2131 
L 4056 0 
L 2931 0 
L 2931 347 
L 2931 1625 
Q 2931 2084 2911 2256 
Q 2891 2428 2841 2509 
Q 2775 2619 2662 2680 
Q 2550 2741 2406 2741 
Q 2056 2741 1856 2470 
Q 1656 2200 1656 1722 
L 1656 0 
L 538 0 
L 538 4863 
L 1656 4863 
L 1656 2988 
Q 1909 3294 2193 3439 
Q 2478 3584 2822 3584 
Q 3428 3584 3742 3212 
Q 4056 2841 4056 2131 
z
" transform="scale(0.015625)"/>
      <path id="DejaVuSans-Bold-48" d="M 4031 1759 
L 4031 1441 
L 1416 1441 
Q 1456 1047 1700 850 
Q 1944 653 2381 653 
Q 2734 653 3104 758 
Q 3475 863 3866 1075 
L 3866 213 
Q 3469 63 3072 -14 
Q 2675 -91 2278 -91 
Q 1328 -91 801 392 
Q 275 875 275 1747 
Q 275 2603 792 3093 
Q 1309 3584 2216 3584 
Q 3041 3584 3536 3087 
Q 4031 2591 4031 1759 
z
M 2881 2131 
Q 2881 2450 2695 2645 
Q 2509 2841 2209 2841 
Q 1884 2841 1681 2658 
Q 1478 2475 1428 2131 
L 2881 2131 
z
" transform="scale(0.015625)"/>
      <path id="DejaVuSans-Bold-55" d="M 3138 2547 
Q 2991 2616 2845 2648 
Q 2700 2681 2553 2681 
Q 2122 2681 1889 2404 
Q 1656 2128 1656 1613 
L 1656 0 
L 538 0 
L 538 3500 
L 1656 3500 
L 1656 2925 
Q 1872 3269 2151 3426 
Q 2431 3584 2822 3584 
Q 2878 3584 2943 3579 
Q 3009 3575 3134 3559 
L 3138 2547 
z
" transform="scale(0.015625)"/>
      <path id="DejaVuSans-Bold-3" transform="scale(0.015625)"/>
      <path id="DejaVuSans-Bold-57" d="M 1759 4494 
L 1759 3500 
L 2913 3500 
L 2913 2700 
L 1759 2700 
L 1759 1216 
Q 1759 972 1856 886 
Q 1953 800 2241 800 
L 2816 800 
L 2816 0 
L 1856 0 
Q 1194 0 917 276 
Q 641 553 641 1216 
L 641 2700 
L 84 2700 
L 84 3500 
L 641 3500 
L 641 4494 
L 1759 4494 
z
" transform="scale(0.015625)"/>
      <path id="DejaVuSans-Bold-5b" d="M 1422 1791 
L 159 3500 
L 1344 3500 
L 2059 2463 
L 2784 3500 
L 3969 3500 
L 2706 1797 
L 4031 0 
L 2847 0 
L 2059 1106 
L 1281 0 
L 97 0 
L 1422 1791 
z
" transform="scale(0.015625)"/>
      <path id="DejaVuSans-Bold-44" d="M 2106 1575 
Q 1756 1575 1579 1456 
Q 1403 1338 1403 1106 
Q 1403 894 1545 773 
Q 1688 653 1941 653 
Q 2256 653 2472 879 
Q 2688 1106 2688 1447 
L 2688 1575 
L 2106 1575 
z
M 3816 1997 
L 3816 0 
L 2688 0 
L 2688 519 
Q 2463 200 2181 54 
Q 1900 -91 1497 -91 
Q 953 -91 614 226 
Q 275 544 275 1050 
Q 275 1666 698 1953 
Q 1122 2241 2028 2241 
L 2688 2241 
L 2688 2328 
Q 2688 2594 2478 2717 
Q 2269 2841 1825 2841 
Q 1466 2841 1156 2769 
Q 847 2697 581 2553 
L 581 3406 
Q 941 3494 1303 3539 
Q 1666 3584 2028 3584 
Q 2975 3584 3395 3211 
Q 3816 2838 3816 1997 
z
" transform="scale(0.015625)"/>
      <path id="DejaVuSans-Bold-46" d="M 3366 3391 
L 3366 2478 
Q 3138 2634 2908 2709 
Q 2678 2784 2431 2784 
Q 1963 2784 1702 2511 
Q 1441 2238 1441 1747 
Q 1441 1256 1702 982 
Q 1963 709 2431 709 
Q 2694 709 2930 787 
Q 3166 866 3366 1019 
L 3366 103 
Q 3103 6 2833 -42 
Q 2563 -91 2291 -91 
Q 1344 -91 809 395 
Q 275 881 275 1747 
Q 275 2613 809 3098 
Q 1344 3584 2291 3584 
Q 2566 3584 2833 3536 
Q 3100 3488 3366 3391 
z
" transform="scale(0.015625)"/>
      <path id="DejaVuSans-Bold-52" d="M 2203 2784 
Q 1831 2784 1636 2517 
Q 1441 2250 1441 1747 
Q 1441 1244 1636 976 
Q 1831 709 2203 709 
Q 2569 709 2762 976 
Q 2956 1244 2956 1747 
Q 2956 2250 2762 2517 
Q 2569 2784 2203 2784 
z
M 2203 3584 
Q 3106 3584 3614 3096 
Q 4122 2609 4122 1747 
Q 4122 884 3614 396 
Q 3106 -91 2203 -91 
Q 1297 -91 786 396 
Q 275 884 275 1747 
Q 275 2609 786 3096 
Q 1297 3584 2203 3584 
z
" transform="scale(0.015625)"/>
      <path id="DejaVuSans-Bold-50" d="M 3781 2919 
Q 3994 3244 4286 3414 
Q 4578 3584 4928 3584 
Q 5531 3584 5847 3212 
Q 6163 2841 6163 2131 
L 6163 0 
L 5038 0 
L 5038 1825 
Q 5041 1866 5042 1909 
Q 5044 1953 5044 2034 
Q 5044 2406 4934 2573 
Q 4825 2741 4581 2741 
Q 4263 2741 4089 2478 
Q 3916 2216 3909 1719 
L 3909 0 
L 2784 0 
L 2784 1825 
Q 2784 2406 2684 2573 
Q 2584 2741 2328 2741 
Q 2006 2741 1831 2477 
Q 1656 2213 1656 1722 
L 1656 0 
L 531 0 
L 531 3500 
L 1656 3500 
L 1656 2988 
Q 1863 3284 2130 3434 
Q 2397 3584 2719 3584 
Q 3081 3584 3359 3409 
Q 3638 3234 3781 2919 
z
" transform="scale(0.015625)"/>
      <path id="DejaVuSans-Bold-53" d="M 1656 506 
L 1656 -1331 
L 538 -1331 
L 538 3500 
L 1656 3500 
L 1656 2988 
Q 1888 3294 2169 3439 
Q 2450 3584 2816 3584 
Q 3463 3584 3878 3070 
Q 4294 2556 4294 1747 
Q 4294 938 3878 423 
Q 3463 -91 2816 -91 
Q 2450 -91 2169 54 
Q 1888 200 1656 506 
z
M 2400 2772 
Q 2041 2772 1848 2508 
Q 1656 2244 1656 1747 
Q 1656 1250 1848 986 
Q 2041 722 2400 722 
Q 2759 722 2948 984 
Q 3138 1247 3138 1747 
Q 3138 2247 2948 2509 
Q 2759 2772 2400 2772 
z
" transform="scale(0.015625)"/>
      <path id="DejaVuSans-Bold-58" d="M 500 1363 
L 500 3500 
L 1625 3500 
L 1625 3150 
Q 1625 2866 1622 2436 
Q 1619 2006 1619 1863 
Q 1619 1441 1641 1255 
Q 1663 1069 1716 984 
Q 1784 875 1895 815 
Q 2006 756 2150 756 
Q 2500 756 2700 1025 
Q 2900 1294 2900 1772 
L 2900 3500 
L 4019 3500 
L 4019 0 
L 2900 0 
L 2900 506 
Q 2647 200 2364 54 
Q 2081 -91 1741 -91 
Q 1134 -91 817 281 
Q 500 653 500 1363 
z
" transform="scale(0.015625)"/>
      <path id="DejaVuSans-Bold-4f" d="M 538 4863 
L 1656 4863 
L 1656 0 
L 538 0 
L 538 4863 
z
" transform="scale(0.015625)"/>
      <path id="DejaVuSans-Bold-5c" d="M 78 3500 
L 1197 3500 
L 2138 1125 
L 2938 3500 
L 4056 3500 
L 2584 -331 
Q 2363 -916 2067 -1148 
Q 1772 -1381 1288 -1381 
L 641 -1381 
L 641 -647 
L 991 -647 
Q 1275 -647 1404 -556 
Q 1534 -466 1606 -231 
L 1638 -134 
L 78 3500 
z
" transform="scale(0.015625)"/>
      <path id="DejaVuSans-Bold-4a" d="M 2919 594 
Q 2688 288 2409 144 
Q 2131 0 1766 0 
Q 1125 0 706 504 
Q 288 1009 288 1791 
Q 288 2575 706 3076 
Q 1125 3578 1766 3578 
Q 2131 3578 2409 3434 
Q 2688 3291 2919 2981 
L 2919 3500 
L 4044 3500 
L 4044 353 
Q 4044 -491 3511 -936 
Q 2978 -1381 1966 -1381 
Q 1638 -1381 1331 -1331 
Q 1025 -1281 716 -1178 
L 716 -306 
Q 1009 -475 1290 -558 
Q 1572 -641 1856 -641 
Q 2406 -641 2662 -400 
Q 2919 -159 2919 353 
L 2919 594 
z
M 2181 2772 
Q 1834 2772 1640 2515 
Q 1447 2259 1447 1791 
Q 1447 1309 1634 1061 
Q 1822 813 2181 813 
Q 2531 813 2725 1069 
Q 2919 1325 2919 1791 
Q 2919 2259 2725 2515 
Q 2531 2772 2181 2772 
z
" transform="scale(0.015625)"/>
      <path id="DejaVuSans-Bold-56" d="M 3272 3391 
L 3272 2541 
Q 2913 2691 2578 2766 
Q 2244 2841 1947 2841 
Q 1628 2841 1473 2761 
Q 1319 2681 1319 2516 
Q 1319 2381 1436 2309 
Q 1553 2238 1856 2203 
L 2053 2175 
Q 2913 2066 3209 1816 
Q 3506 1566 3506 1031 
Q 3506 472 3093 190 
Q 2681 -91 1863 -91 
Q 1516 -91 1145 -36 
Q 775 19 384 128 
L 384 978 
Q 719 816 1070 734 
Q 1422 653 1784 653 
Q 2113 653 2278 743 
Q 2444 834 2444 1013 
Q 2444 1163 2330 1236 
Q 2216 1309 1875 1350 
L 1678 1375 
Q 931 1469 631 1722 
Q 331 1975 331 2491 
Q 331 3047 712 3315 
Q 1094 3584 1881 3584 
Q 2191 3584 2531 3537 
Q 2872 3491 3272 3391 
z
" transform="scale(0.015625)"/>
     </defs>
     <use xlink:href="#DejaVuSans-Bold-3a"/>
     <use xlink:href="#DejaVuSans-Bold-4b" transform="translate(110.296875 0)"/>
     <use xlink:href="#DejaVuSans-Bold-48" transform="translate(181.484375 0)"/>
     <use xlink:href="#DejaVuSans-Bold-55" transform="translate(249.3125 0)"/>
     <use xlink:href="#DejaVuSans-Bold-48" transform="translate(298.625 0)"/>
     <use xlink:href="#DejaVuSans-Bold-3" transform="translate(366.453125 0)"/>
     <use xlink:href="#DejaVuSans-Bold-57" transform="translate(401.265625 0)"/>
     <use xlink:href="#DejaVuSans-Bold-4b" transform="translate(449.0625 0)"/>
     <use xlink:href="#DejaVuSans-Bold-48" transform="translate(520.25 0)"/>
     <use xlink:href="#DejaVuSans-Bold-3" transform="translate(588.078125 0)"/>
     <use xlink:href="#DejaVuSans-Bold-48" transform="translate(622.890625 0)"/>
     <use xlink:href="#DejaVuSans-Bold-5b" transform="translate(690.71875 0)"/>
     <use xlink:href="#DejaVuSans-Bold-57" transform="translate(755.21875 0)"/>
     <use xlink:href="#DejaVuSans-Bold-55" transform="translate(803.015625 0)"/>
     <use xlink:href="#DejaVuSans-Bold-44" transform="translate(852.328125 0)"/>
     <use xlink:href="#DejaVuSans-Bold-3" transform="translate(919.8125 0)"/>
     <use xlink:href="#DejaVuSans-Bold-46" transform="translate(954.625 0)"/>
     <use xlink:href="#DejaVuSans-Bold-52" transform="translate(1013.90625 0)"/>
     <use xlink:href="#DejaVuSans-Bold-50" transform="translate(1082.609375 0)"/>
     <use xlink:href="#DejaVuSans-Bold-53" transform="translate(1186.8125 0)"/>
     <use xlink:href="#DejaVuSans-Bold-58" transform="translate(1258.390625 0)"/>
     <use xlink:href="#DejaVuSans-Bold-57" transform="translate(1329.578125 0)"/>
     <use xlink:href="#DejaVuSans-Bold-48" transform="translate(1377.375 0)"/>
     <use xlink:href="#DejaVuSans-Bold-3" transform="translate(1445.203125 0)"/>
     <use xlink:href="#DejaVuSans-Bold-44" transform="translate(1480.015625 0)"/>
     <use xlink:href="#DejaVuSans-Bold-46" transform="translate(1547.5 0)"/>
     <use xlink:href="#DejaVuSans-Bold-57" transform="translate(1606.78125 0)"/>
     <use xlink:href="#DejaVuSans-Bold-58" transform="translate(1654.578125 0)"/>
     <use xlink:href="#DejaVuSans-Bold-44" transform="translate(1725.765625 0)"/>
     <use xlink:href="#DejaVuSans-Bold-4f" transform="translate(1793.25 0)"/>
     <use xlink:href="#DejaVuSans-Bold-4f" transform="translate(1827.53125 0)"/>
     <use xlink:href="#DejaVuSans-Bold-5c" transform="translate(1861.8125 0)"/>
     <use xlink:href="#DejaVuSans-Bold-3" transform="translate(1927 0)"/>
     <use xlink:href="#DejaVuSans-Bold-4a" transform="translate(1961.8125 0)"/>
     <use xlink:href="#DejaVuSans-Bold-52" transform="translate(2033.390625 0)"/>
     <use xlink:href="#DejaVuSans-Bold-48" transform="translate(2102.09375 0)"/>
     <use xlink:href="#DejaVuSans-Bold-56" transform="translate(2169.921875 0)"/>
    </g>
   </g>
  </g>
 </g>
 <defs>
  <clipPath id="p9a9d88a407">
   <rect x="57.598359" y="52.997656" width="546.84" height="310.464"/>
  </clipPath>
 </defs>
</svg>
